<svg xmlns="http://www.w3.org/2000/svg" viewBox="0 0 1333.34 959.29" shape-rendering="geometricPrecision" text-rendering="geometricPrecision" image-rendering="optimizeQuality" fill-rule="evenodd" clip-rule="evenodd"><path d="M1105.08 545.66h-324.7L453.71 855.14c-38.12 36.76-79.71 61.74-123.83 78.11-40.97 15.2-84.17 22.8-128.79 25.48-2.84.37-5.74.57-8.69.57H-.01V827.26c64.44 0 129.26-.76 193.67.02 31.48-1.91 61.81-7.24 90.31-17.81 28.28-10.49 54.75-26.33 78.7-49.48l295.89-280.33-295.89-280.33c-23.95-23.15-50.43-38.99-78.7-49.48-28.51-10.57-58.83-15.9-90.31-17.81-64.4.77-129.22.02-193.67.02V.02H192.4c2.94 0 5.84.2 8.69.57 44.61 2.68 87.81 10.27 128.79 25.48 44.12 16.36 85.71 41.35 123.83 78.11l326.67 309.47h324.7L962.95 275.54c-26.06-25.35-26.64-67.03-1.29-93.09 25.35-26.06 67.03-26.64 93.09-1.29l258.63 251.31.09.09 1.11 1.11.09.09.4.42.76.81 1.04 1.15.09.11.01.02 1.08 1.26.96 1.17.1.12.92 1.19.1.13c17.59 23.96 17.59 55.09 0 79.05l-.1.13-.92 1.19-.1.12-.96 1.17-1.08 1.26-.01.02-.09.11-1.04 1.15-.76.81-.4.42-.09.09-1.11 1.11-.09.09-258.63 251.31c-26.06 25.35-67.74 24.77-93.09-1.29-25.35-26.06-24.77-67.74 1.29-93.09l142.13-138.11z" fill-rule="nonzero"/></svg>